<?xml version="1.0" encoding="UTF-8" standalone="no"?>
<!-- Created with Inkscape (http://www.inkscape.org/) -->

<svg
   width="324mm"
   height="458mm"
   viewBox="0 0 323.99999 458.00001"
   version="1.1"
   id="svg1440"
   inkscape:version="1.1 (c68e22c387, 2021-05-23)"
   sodipodi:docname="account.svg"
   xmlns:inkscape="http://www.inkscape.org/namespaces/inkscape"
   xmlns:sodipodi="http://sodipodi.sourceforge.net/DTD/sodipodi-0.dtd"
   xmlns="http://www.w3.org/2000/svg"
   xmlns:svg="http://www.w3.org/2000/svg">
  <sodipodi:namedview
     id="namedview1442"
     pagecolor="#ffffff"
     bordercolor="#666666"
     borderopacity="1.0"
     inkscape:pageshadow="2"
     inkscape:pageopacity="0.0"
     inkscape:pagecheckerboard="0"
     inkscape:document-units="mm"
     showgrid="false"
     inkscape:zoom="4.3994184"
     inkscape:cx="397.32525"
     inkscape:cy="524.6148"
     inkscape:window-width="3840"
     inkscape:window-height="2066"
     inkscape:window-x="1909"
     inkscape:window-y="-11"
     inkscape:window-maximized="1"
     inkscape:current-layer="layer1"
     units="mm" />
  <defs
     id="defs1437" />
  <g
     inkscape:label="Laag 1"
     inkscape:groupmode="layer"
     id="layer1">
    <path
       id="path1964"
       style="fill:none;stroke:#000000;stroke-width:0.513351"
       d="m 79.50574,110.86817 a 3.9999999,4.2164809 0 0 0 -3.999756,4.21677 3.9999999,4.2164809 0 0 0 0.318844,1.64345 7.5,7.905902 0 0 0 -3.690731,6.09065 h 14.865244 a 7.5,7.905902 0 0 0 -3.788918,-6.14839 3.9999999,4.2164809 0 0 0 0.29559,-1.58571 3.9999999,4.2164809 0 0 0 -4.000273,-4.21677 z" />
    <path
       style="fill:none;stroke:#000000;stroke-width:1.03092"
       d="m 273.90014,462.73162 c 6e-4,-0.82349 1.16831,-5.17558 1.83654,-6.8449 2.12333,-5.30429 6.10511,-10.27257 10.53134,-13.14052 l 1.66379,-1.07804 -0.53296,-1.52544 c -1.46841,-4.20291 -1.24103,-7.81679 0.75489,-11.99782 2.32344,-4.86711 7.13328,-7.97572 12.34053,-7.97572 5.20724,0 10.01708,3.10861 12.34052,7.97572 0.56167,1.17659 1.12656,2.59954 1.25531,3.16211 0.67196,2.93614 0.52776,5.90391 -0.41754,8.59347 -0.24714,0.70314 -0.44934,1.34168 -0.44934,1.41896 0,0.0773 0.80631,0.66569 1.79181,1.30757 6.37142,4.14992 11.28059,11.8381 12.42286,19.45528 l 0.15702,1.04711 h -26.84753 c -25.41766,0 -26.84752,-0.0212 -26.84724,-0.39778 z"
       id="path944"
       transform="scale(0.26458333)" />
  </g>
</svg>
