<?xml version="1.0" encoding="UTF-8" standalone="no"?>
<!-- Created with Inkscape (http://www.inkscape.org/) -->

<svg
   width="210mm"
   height="297mm"
   viewBox="0 0 210 297"
   version="1.1"
   id="svg1064"
   inkscape:version="1.1 (c68e22c387, 2021-05-23)"
   sodipodi:docname="bloemetjes.svg"
   xmlns:inkscape="http://www.inkscape.org/namespaces/inkscape"
   xmlns:sodipodi="http://sodipodi.sourceforge.net/DTD/sodipodi-0.dtd"
   xmlns="http://www.w3.org/2000/svg"
   xmlns:svg="http://www.w3.org/2000/svg">
  <sodipodi:namedview
     id="namedview1066"
     pagecolor="#ffffff"
     bordercolor="#666666"
     borderopacity="1.0"
     inkscape:pageshadow="2"
     inkscape:pageopacity="0.0"
     inkscape:pagecheckerboard="0"
     inkscape:document-units="mm"
     showgrid="false"
     inkscape:snap-global="false"
     inkscape:zoom="4.3994184"
     inkscape:cx="397.32525"
     inkscape:cy="475.5174"
     inkscape:window-width="3840"
     inkscape:window-height="2066"
     inkscape:window-x="1909"
     inkscape:window-y="-11"
     inkscape:window-maximized="1"
     inkscape:current-layer="layer3" />
  <defs
     id="defs1061" />
  <g
     inkscape:label="pot"
     inkscape:groupmode="layer"
     id="layer1" />
  <g
     inkscape:groupmode="layer"
     id="layer2"
     inkscape:label="steeltjes" />
  <g
     inkscape:groupmode="layer"
     id="layer3"
     inkscape:label="bloemetjes">
    <g
       id="g8125">
      <path
         id="path1147-8"
         style="fill:#808080;stroke:#000000;stroke-width:0.260266"
         d="m 93.221987,123.76999 v 14.2413 h 0.07022 c -0.01464,0.0426 -0.02214,0.0853 -0.0225,0.12795 7.95e-4,1.01226 3.93155,1.83279 8.780173,1.8328 4.84877,3e-5 8.77977,-0.8205 8.78056,-1.8328 -1.1e-4,-0.0427 -0.007,-0.0854 -0.0217,-0.12795 h 0.0508 v -3.89241 -10.34889 z"
         sodipodi:nodetypes="ccccscccccc"
         inkscape:export-filename="Z:\Users\Peut\Documents\Webstorm\React\slidingsides\public\bloemetjes.png"
         inkscape:export-xdpi="28.458216"
         inkscape:export-ydpi="28.458216" />
      <ellipse
         style="fill:#000080;stroke:#000000;stroke-width:0.261583"
         id="path1147"
         cx="102.06376"
         cy="123.62244"
         rx="8.7988043"
         ry="1.8478167"
         inkscape:export-filename="Z:\Users\Peut\Documents\Webstorm\React\slidingsides\public\bloemetjes.png"
         inkscape:export-xdpi="28.458216"
         inkscape:export-ydpi="28.458216" />
      <path
         style="fill:none;stroke:#008000;stroke-width:1;stroke-linecap:butt;stroke-linejoin:miter;stroke-opacity:1;stroke-miterlimit:4;stroke-dasharray:none"
         d="m 88.876911,111.92676 c 8.126768,12.76228 7.254524,12.66067 7.254524,12.66067 l -0.06382,0.12193 -0.02128,0.0406"
         id="path5731"
         inkscape:export-filename="Z:\Users\Peut\Documents\Webstorm\React\slidingsides\public\bloemetjes.png"
         inkscape:export-xdpi="28.458216"
         inkscape:export-ydpi="28.458216" />
      <path
         style="fill:none;stroke:#005800;stroke-width:1;stroke-linecap:butt;stroke-linejoin:miter;stroke-opacity:1;stroke-miterlimit:4;stroke-dasharray:none"
         d="m 97.724226,115.86147 c 1.063143,8.93041 1.424612,8.86662 1.424612,8.86662"
         id="path6092"
         inkscape:export-filename="Z:\Users\Peut\Documents\Webstorm\React\slidingsides\public\bloemetjes.png"
         inkscape:export-xdpi="28.458216"
         inkscape:export-ydpi="28.458216" />
      <path
         style="fill:none;stroke:#005800;stroke-width:1;stroke-linecap:butt;stroke-linejoin:miter;stroke-opacity:1;stroke-miterlimit:4;stroke-dasharray:none"
         d="m 97.065077,104.29446 c 0.701675,20.30605 0.786726,20.34858 0.786726,20.34858 h 0.04253 l 0.127577,-0.0425"
         id="path6094"
         inkscape:export-filename="Z:\Users\Peut\Documents\Webstorm\React\slidingsides\public\bloemetjes.png"
         inkscape:export-xdpi="28.458216"
         inkscape:export-ydpi="28.458216" />
      <path
         style="fill:none;stroke:#005800;stroke-width:1;stroke-linecap:butt;stroke-linejoin:miter;stroke-miterlimit:4;stroke-dasharray:none;stroke-opacity:1"
         d="m 106.54421,111.2679 c -4.92083,12.04961 -3.67535,13.4086 -3.67027,13.41415"
         id="path6096"
         sodipodi:nodetypes="cc"
         inkscape:export-filename="Z:\Users\Peut\Documents\Webstorm\React\slidingsides\public\bloemetjes.png"
         inkscape:export-xdpi="28.458216"
         inkscape:export-ydpi="28.458216" />
      <path
         style="fill:none;stroke:#005800;stroke-width:1;stroke-linecap:butt;stroke-linejoin:miter;stroke-miterlimit:4;stroke-dasharray:none;stroke-opacity:1"
         d="m 106.73969,101.46649 c -0.33543,1.38039 -0.52902,2.71692 -0.95097,3.90391 -6.46831,18.19612 -5.02662,19.7168 -5.0239,19.71916"
         id="path6468"
         sodipodi:nodetypes="csc"
         inkscape:export-filename="Z:\Users\Peut\Documents\Webstorm\React\slidingsides\public\bloemetjes.png"
         inkscape:export-xdpi="28.458216"
         inkscape:export-ydpi="28.458216" />
      <path
         style="fill:none;stroke:#005800;stroke-width:1;stroke-linecap:butt;stroke-linejoin:miter;stroke-miterlimit:4;stroke-dasharray:none;stroke-opacity:1"
         d="m 117.00966,107.05863 c -15.34652,16.05221 -12.39361,17.40448 -12.33247,17.43557"
         id="path6470"
         sodipodi:nodetypes="cc"
         inkscape:export-filename="Z:\Users\Peut\Documents\Webstorm\React\slidingsides\public\bloemetjes.png"
         inkscape:export-xdpi="28.458216"
         inkscape:export-ydpi="28.458216" />
      <path
         style="fill:none;stroke:#005800;stroke-width:1;stroke-linecap:butt;stroke-linejoin:miter;stroke-miterlimit:4;stroke-dasharray:none;stroke-opacity:1"
         d="m 116.00649,115.54588 c -9.99268,9.08666 -6.88755,9.30589 -6.87993,9.30644"
         id="path6472"
         sodipodi:nodetypes="cc"
         inkscape:export-filename="Z:\Users\Peut\Documents\Webstorm\React\slidingsides\public\bloemetjes.png"
         inkscape:export-xdpi="28.458216"
         inkscape:export-ydpi="28.458216" />
      <path
         id="path1540"
         style="fill:#ffffff;stroke:#000000;stroke-width:0.340002"
         d="m 89.979702,111.03865 c 10e-7,0.48052 -0.188097,0.9162 -0.493229,1.23447 -0.313909,0.32746 -0.751685,0.53067 -1.235957,0.53067 -0.955004,0 -1.729188,-0.79028 -1.729186,-1.76514 4e-6,-0.97486 0.774186,-1.76514 1.729186,-1.76514 0.955,0 1.729185,0.79029 1.729186,1.76514 z m 1.77883,3.90452 c -1.610402,1.60343 -0.683545,-2.09267 -2.806659,-1.37121 -2.123116,0.72148 0.740257,3.12959 -1.475064,2.82623 -2.21532,-0.30338 1.154655,-1.85788 -0.714098,-3.12601 -1.868753,-1.26813 -1.902593,2.55026 -3.054649,0.56853 -1.152057,-1.98171 2.123378,-0.22405 1.916195,-2.52685 -0.20718,-2.30281 -3.112748,0.0505 -2.334021,-2.11725 0.778728,-2.1678 1.493154,1.57848 3.103556,-0.0249 1.610401,-1.60342 -1.978944,-2.48723 0.14417,-3.20871 2.123117,-0.72148 -0.261444,2.19239 1.953874,2.49576 2.21532,0.30338 0.645047,-3.15208 2.513801,-1.88395 1.868753,1.26814 -1.819169,1.15538 -0.667113,3.13711 1.152054,1.98171 2.783303,-1.44333 2.990485,0.85946 0.207182,2.30282 -2.007022,-0.75165 -2.785751,1.41615 -0.778729,2.1678 2.825676,1.35227 1.215274,2.95569 z"
         sodipodi:nodetypes="sssssscssssssssssssscc"
         inkscape:export-filename="Z:\Users\Peut\Documents\Webstorm\React\slidingsides\public\bloemetjes.png"
         inkscape:export-xdpi="28.458216"
         inkscape:export-ydpi="28.458216" />
      <path
         style="fill:#ff0000;stroke:#000000;stroke-width:0.0910794;stroke-miterlimit:4;stroke-dasharray:none"
         d="m 87.367145,116.19092 c -0.194885,-0.0364 -0.373645,-0.1061 -0.445918,-0.1738 -0.09595,-0.0898 -0.0446,-0.23155 0.342436,-0.94496 0.472788,-0.87146 0.304663,-1.53145 -0.516659,-2.02818 -0.254735,-0.15407 -0.433597,-0.20754 -0.697156,-0.20841 -0.457208,-0.002 -0.739836,0.19736 -1.211055,0.85224 -0.353316,0.49104 -0.462003,0.5884 -0.583274,0.52253 -0.176672,-0.0959 -0.474438,-0.54581 -0.58454,-0.88309 -0.09331,-0.28588 -0.0018,-0.3438 0.720289,-0.45581 0.394009,-0.0611 0.556209,-0.1054 0.774247,-0.2114 0.457543,-0.22243 0.670439,-0.64183 0.639298,-1.2594 -0.02276,-0.45118 -0.134214,-0.78011 -0.34241,-1.01047 -0.278303,-0.30793 -0.61658,-0.39554 -1.428538,-0.36995 -0.623033,0.0197 -0.696032,-0.01 -0.689293,-0.27552 0.0038,-0.15123 0.114944,-0.51159 0.227603,-0.73814 0.09595,-0.19295 0.145973,-0.26065 0.222694,-0.30136 0.08812,-0.0467 0.225325,0.0413 0.569329,0.36557 0.393985,0.37133 0.516273,0.46606 0.749718,0.58079 0.169698,0.0834 0.21257,0.0939 0.415461,0.1024 0.193948,0.008 0.250116,9.1e-4 0.393537,-0.0508 0.31113,-0.11199 0.651176,-0.39696 0.86089,-0.72148 0.255918,-0.396 0.281694,-0.80314 0.07734,-1.22164 -0.09175,-0.18788 -0.215557,-0.36425 -0.486056,-0.69239 -0.401006,-0.48646 -0.424979,-0.57468 -0.198481,-0.73032 0.236127,-0.16227 0.82913,-0.33954 0.993199,-0.29693 0.15337,0.0398 0.166654,0.14422 0.126817,0.99644 -0.01665,0.35632 -0.0137,0.45978 0.01748,0.61059 0.08296,0.40122 0.268259,0.65956 0.589791,0.82224 0.27953,0.14144 0.430428,0.17256 0.834474,0.17212 0.314596,-3.1e-4 0.370891,-0.007 0.49126,-0.0566 0.308563,-0.1276 0.524443,-0.36134 0.653419,-0.70748 0.03948,-0.10595 0.115826,-0.41193 0.169657,-0.67994 0.140494,-0.69947 0.185267,-0.76941 0.439572,-0.68662 0.155405,0.0506 0.484979,0.25756 0.668442,0.41979 0.130352,0.11525 0.195118,0.21508 0.195118,0.30073 0,0.0838 -0.147014,0.2255 -0.478226,0.46115 -0.604316,0.42996 -0.808002,0.65907 -0.908676,1.02208 -0.154479,0.55705 0.26444,1.43035 0.823254,1.71618 0.15168,0.0776 0.211412,0.0941 0.378479,0.10493 0.3082,0.0199 0.507141,-0.0426 1.076855,-0.33818 0.272432,-0.14136 0.519114,-0.25341 0.574952,-0.26117 0.114164,-0.0159 0.174958,0.0273 0.229631,0.16264 0.08858,0.21941 0.134985,0.82932 0.07899,1.03803 -0.05421,0.202 -0.163708,0.20655 -0.723649,0.0301 -0.453007,-0.1428 -0.6514,-0.18349 -0.894527,-0.18349 -0.554553,0 -0.935622,0.32694 -1.154521,0.99054 -0.136226,0.41297 -0.135728,0.75523 0.0015,1.06093 0.129933,0.28934 0.352062,0.48045 0.826772,0.71129 0.749458,0.36446 0.808683,0.40365 0.808683,0.53513 0,0.0898 -0.176596,0.33699 -0.390688,0.54672 -0.223505,0.21897 -0.453696,0.35778 -0.540341,0.32585 -0.08338,-0.0307 -0.192967,-0.22351 -0.325438,-0.57248 -0.295892,-0.77945 -0.505311,-1.06537 -0.896272,-1.22369 -0.171355,-0.0694 -0.554158,-0.0759 -0.780414,-0.0133 -0.351977,0.0974 -0.68496,0.27818 -0.840321,0.45616 -0.316325,0.36238 -0.355447,0.78568 -0.148949,1.61154 0.08448,0.33788 0.109517,0.47944 0.104068,0.58839 -0.0068,0.13662 -0.01117,0.14551 -0.09009,0.18633 -0.103241,0.0534 -0.444418,0.0551 -0.719824,0.004 z m 1.372683,-3.26979 c 0.657354,-0.17085 1.191082,-0.72337 1.360081,-1.40797 0.06465,-0.26185 0.06497,-0.66243 8.85e-4,-0.93956 -0.131174,-0.56628 -0.531769,-1.06238 -1.056819,-1.30877 -0.273549,-0.12837 -0.524266,-0.17545 -0.862145,-0.16188 -0.349708,0.014 -0.505978,0.0535 -0.79353,0.20056 -0.649758,0.33224 -1.034833,0.9747 -1.036554,1.72939 -8.84e-4,0.32924 0.03967,0.532 0.159602,0.80066 0.275011,0.61605 0.807022,1.02921 1.464756,1.13754 0.181217,0.0298 0.549402,0.006 0.763835,-0.05 z"
         id="path3953"
         inkscape:export-filename="Z:\Users\Peut\Documents\Webstorm\React\slidingsides\public\bloemetjes.png"
         inkscape:export-xdpi="28.458216"
         inkscape:export-ydpi="28.458216" />
      <path
         id="path1540-3"
         style="fill:#ffffff;stroke:#000000;stroke-width:0.3"
         d="m 99.276423,115.7126 a 1.5521907,1.5309278 0 0 1 -1.55219,1.53093 1.5521907,1.5309278 0 0 1 -1.5522,-1.53093 1.5521907,1.5309278 0 0 1 1.5522,-1.53092 1.5521907,1.5309278 0 0 1 1.55219,1.53092 z m 1.596747,3.38645 c -1.445567,1.39067 -0.61358,-1.81501 -2.519377,-1.18927 -1.9058,0.62575 0.66449,2.71433 -1.32408,2.45122 -1.988564,-0.26312 1.03647,-1.61136 -0.641,-2.71123 -1.677474,-1.09986 -1.707854,2.21187 -2.741984,0.4931 -1.03414,-1.71877 1.906034,-0.19432 1.720054,-2.19158 -0.185974,-1.99725 -2.794134,0.0438 -2.095114,-1.83632 0.69902,-1.88016 1.34032,1.36904 2.785884,-0.0216 1.44556,-1.39067 -1.776384,-2.15721 0.12941,-2.78296 1.9058,-0.62574 -0.23468,1.90149 1.75388,2.16461 1.98856,0.26312 0.57903,-2.73384 2.256497,-1.63397 1.67747,1.09987 -1.632967,1.00207 -0.598837,2.72085 1.034137,1.71877 2.498417,-1.25182 2.684387,0.74543 0.18598,1.99726 -1.80158,-0.65192 -2.500607,1.22824 -0.69901,1.88016 2.536447,1.17284 1.090887,2.56351 z"
         inkscape:export-filename="Z:\Users\Peut\Documents\Webstorm\React\slidingsides\public\bloemetjes.png"
         inkscape:export-xdpi="28.458216"
         inkscape:export-ydpi="28.458216" />
      <path
         style="fill:#00ff00;stroke:#000000;stroke-width:0.303737;stroke-miterlimit:4;stroke-dasharray:none"
         d="m 367.3825,454.36432 c -1.38688,-0.16078 -2.09888,-0.34703 -2.44728,-0.64019 -0.41892,-0.35249 -0.31631,-0.7673 0.55447,-2.24156 1.48558,-2.51515 1.74757,-3.83588 1.05463,-5.31665 -0.64719,-1.38303 -2.68436,-2.77163 -4.34528,-2.96188 -0.56891,-0.0652 -1.47738,0.12264 -2.02963,0.41959 -0.60929,0.32763 -1.50954,1.21872 -2.29755,2.27417 -1.18775,1.59087 -1.51949,1.92873 -1.89384,1.92873 -0.37607,0 -1.42777,-1.32801 -1.93937,-2.4489 -0.33862,-0.74189 -0.39642,-1.07708 -0.22733,-1.31848 0.20337,-0.29036 0.55249,-0.39476 2.30494,-0.68927 2.28404,-0.38385 3.17419,-0.73045 3.94674,-1.53673 0.73988,-0.77218 1.05542,-1.84193 0.98188,-3.32881 -0.11601,-2.34546 -0.92731,-3.6023 -2.76013,-4.27594 -0.4214,-0.15487 -0.68681,-0.17553 -2.79991,-0.21785 -2.80036,-0.0561 -2.76871,-0.0469 -2.76871,-0.80791 0,-0.83249 0.66631,-2.63069 1.20002,-3.23855 0.47836,-0.54483 0.81345,-0.39476 2.44603,1.09546 1.54363,1.40903 2.31336,1.87957 3.37789,2.06495 0.73652,0.12826 1.48614,-0.01 2.32618,-0.42867 0.52995,-0.26421 0.81009,-0.48141 1.46587,-1.1366 0.68054,-0.67993 0.86693,-0.92371 1.16086,-1.51829 0.31578,-0.6388 0.35346,-0.77758 0.3839,-1.41426 0.0661,-1.38191 -0.39127,-2.3336 -2.03091,-4.22616 -0.74208,-0.85654 -1.24875,-1.60516 -1.24875,-1.84506 0,-0.38465 0.77954,-0.889 1.96891,-1.27385 1.3296,-0.43022 2.02538,-0.45104 2.27485,-0.0681 0.11767,0.18065 0.1309,0.37761 0.0979,1.45684 -0.0728,2.37809 -0.0445,3.38011 0.11002,3.89994 0.53343,1.79452 1.78233,2.68876 4.09323,2.93085 1.54818,0.16219 2.81524,-0.19476 3.60509,-1.01561 0.73948,-0.76852 1.11598,-1.71086 1.54886,-3.87673 0.1546,-0.77352 0.36152,-1.56394 0.46284,-1.768 0.17411,-0.35066 0.20172,-0.37026 0.554,-0.3931 0.30697,-0.0199 0.48729,0.0359 1.04825,0.32457 0.83644,0.4304 1.85821,1.18992 2.12096,1.5766 0.10832,0.1594 0.19694,0.38467 0.19694,0.5006 0,0.29307 -0.60654,0.84547 -1.84836,1.68339 -1.35,0.91091 -2.20772,1.76364 -2.62014,2.6049 -0.30472,0.62157 -0.31306,0.66154 -0.31039,1.48673 0.003,1.00606 0.19982,1.65369 0.80657,2.65737 0.74943,1.23969 1.56241,1.96188 2.54425,2.2601 0.45911,0.13945 0.69569,0.16317 1.2962,0.12997 0.95735,-0.0529 1.43663,-0.22099 3.31793,-1.16341 1.8123,-0.90786 2.10302,-0.96978 2.41335,-0.51404 0.35216,0.51716 0.53435,1.55548 0.49511,2.82164 -0.023,0.74162 -0.0529,0.9075 -0.19863,1.09993 -0.15925,0.21033 -0.20831,0.22557 -0.68309,0.21219 -0.34585,-0.01 -0.8936,-0.13195 -1.69118,-0.37729 -2.47082,-0.76007 -3.54108,-0.80578 -4.74177,-0.20252 -1.44936,0.7282 -2.5365,2.90702 -2.4618,4.93387 0.0258,0.69978 0.0626,0.87382 0.28479,1.34677 0.51733,1.10117 1.39163,1.77617 3.52004,2.71766 2.04349,0.90393 2.25563,1.12079 1.8515,1.89265 -0.25516,0.48736 -1.58294,1.81747 -2.1354,2.13916 -0.94038,0.54756 -1.13135,0.373 -2.01322,-1.84028 -0.60646,-1.52207 -1.00426,-2.23674 -1.59155,-2.8593 -1.12009,-1.18735 -2.57983,-1.43942 -4.59203,-0.79294 -1.44725,0.46497 -2.37706,1.19152 -2.88441,2.25386 l -0.28996,0.60714 0.005,1.1251 c 0.005,1.07713 0.0214,1.18675 0.3865,2.57163 0.43867,1.66406 0.49389,2.2033 0.25062,2.44699 -0.0888,0.0889 -0.35587,0.1985 -0.59361,0.24358 -0.42745,0.0811 -0.54269,0.0845 -1.01305,0.03 z m 3.7338,-10.8778 c 0.32979,-0.0937 0.92649,-0.33806 1.326,-0.54307 0.58869,-0.30207 0.87297,-0.51858 1.49965,-1.14217 0.68983,-0.68641 0.81706,-0.86027 1.179,-1.61128 0.49396,-1.02495 0.67242,-1.78437 0.66994,-2.85093 -0.003,-1.22821 -0.17408,-1.91834 -0.75425,-3.04011 -1.01891,-1.9701 -3.34109,-3.35061 -5.63203,-3.34819 -1.84777,0.002 -3.36293,0.63802 -4.6866,1.96748 -0.64406,0.64688 -0.78598,0.8432 -1.13881,1.57535 -0.49267,1.02235 -0.67257,1.78348 -0.67257,2.84547 0,1.06341 0.17997,1.82328 0.67524,2.85093 0.36194,0.75101 0.48916,0.92487 1.17899,1.61128 0.62675,0.62364 0.91033,0.83961 1.49655,1.13977 1.21019,0.61963 1.98617,0.79353 3.33509,0.74741 0.61517,-0.021 1.12467,-0.0886 1.5238,-0.20194 z"
         id="path4463"
         transform="scale(0.26458333)"
         inkscape:export-filename="Z:\Users\Peut\Documents\Webstorm\React\slidingsides\public\bloemetjes.png"
         inkscape:export-xdpi="28.458216"
         inkscape:export-ydpi="28.458216" />
      <path
         id="path1540-4"
         style="fill:#ffffff;stroke:#000000;stroke-width:0.353397"
         d="m 98.949744,103.51987 a 1.8494402,1.7829726 0 0 1 -1.849439,1.78297 1.8494402,1.7829726 0 0 1 -1.849439,-1.78297 1.8494402,1.7829726 0 0 1 1.849439,-1.78296 1.8494402,1.7829726 0 0 1 1.849439,1.78296 z m 1.902536,3.94398 c -1.722392,1.61962 -0.73107,-2.11383 -3.00184,-1.38508 -2.270767,0.72878 0.791742,3.16122 -1.577646,2.85479 -2.369376,-0.30644 1.234958,-1.87665 -0.763753,-3.1576 -1.998723,-1.28094 -2.034909,2.57603 -3.26709,0.57429 -1.232169,-2.00175 2.271053,-0.22632 2.049457,-2.5524 -0.221584,-2.32606 -3.329215,0.051 -2.496342,-2.13864 0.832884,-2.189701 1.596996,1.59444 3.319396,-0.0252 1.72239,-1.61962 -2.116573,-2.512359 0.154192,-3.241131 2.270768,-0.728758 -0.279621,2.214541 2.089754,2.520981 2.369376,0.30644 0.689904,-3.183926 2.688622,-1.902977 1.99871,1.280947 -1.945683,1.167047 -0.713503,3.168797 1.232173,2.00174 2.976863,-1.45791 3.198453,0.86816 0.2216,2.32607 -2.14661,-0.75926 -2.979489,1.43044 -0.832886,2.18971 3.022189,1.36594 1.299779,2.98556 z"
         inkscape:export-filename="Z:\Users\Peut\Documents\Webstorm\React\slidingsides\public\bloemetjes.png"
         inkscape:export-xdpi="28.458216"
         inkscape:export-ydpi="28.458216" />
      <path
         style="fill:#00ffff;stroke:#000000;stroke-width:0.0946679;stroke-miterlimit:4;stroke-dasharray:none"
         d="m 96.479605,108.7661 c -0.437216,-0.0495 -0.661675,-0.10693 -0.771509,-0.19727 -0.132065,-0.10862 -0.09971,-0.23643 0.174799,-0.69072 0.46833,-0.77502 0.550924,-1.182 0.332473,-1.63829 -0.204029,-0.42616 -0.846249,-0.85405 -1.369858,-0.91268 -0.179349,-0.0201 -0.465747,0.0378 -0.639843,0.12929 -0.192081,0.10096 -0.475887,0.37554 -0.724308,0.70078 -0.37444,0.49021 -0.479023,0.59432 -0.597037,0.59432 -0.118554,0 -0.450107,-0.40922 -0.61139,-0.75462 -0.106749,-0.2286 -0.124969,-0.33188 -0.07166,-0.40627 0.06412,-0.0895 0.174174,-0.12165 0.726636,-0.21239 0.720048,-0.11828 1.000671,-0.22509 1.244219,-0.47354 0.233251,-0.23794 0.332722,-0.56757 0.309539,-1.02575 -0.03656,-0.72274 -0.292333,-1.11003 -0.870136,-1.3176 -0.132847,-0.0476 -0.216519,-0.054 -0.882677,-0.0671 -0.882815,-0.0173 -0.872842,-0.0145 -0.872842,-0.24896 0,-0.25652 0.210055,-0.81063 0.378309,-0.99793 0.150804,-0.16789 0.256441,-0.12164 0.771116,0.33756 0.486632,0.43419 0.729292,0.57918 1.064886,0.6363 0.23219,0.0395 0.468511,-0.003 0.733333,-0.1321 0.16707,-0.0814 0.255382,-0.14834 0.462118,-0.35022 0.214541,-0.20953 0.273301,-0.28464 0.365964,-0.46786 0.09956,-0.19684 0.111433,-0.2396 0.121025,-0.43578 0.02083,-0.42584 -0.123349,-0.7191 -0.640249,-1.302273 -0.233939,-0.263939 -0.393668,-0.494622 -0.393668,-0.568542 0,-0.11853 0.245748,-0.27394 0.620702,-0.392529 0.419157,-0.132572 0.638503,-0.138985 0.717149,-0.02096 0.03709,0.05567 0.04126,0.116357 0.03086,0.448912 -0.02295,0.732796 -0.01402,1.041572 0.03468,1.201742 0.168165,0.55298 0.561883,0.82853 1.290402,0.90313 0.488064,0.0499 0.887507,-0.06 1.136508,-0.31295 0.233122,-0.23682 0.351815,-0.5272 0.488281,-1.194602 0.04874,-0.238352 0.113967,-0.481918 0.145911,-0.544797 0.0549,-0.108054 0.06359,-0.114091 0.17465,-0.121131 0.09678,-0.0061 0.153619,0.01106 0.330462,0.100013 0.263699,0.132625 0.58581,0.366669 0.66864,0.48582 0.0341,0.04911 0.0621,0.118537 0.0621,0.154256 0,0.0903 -0.1912,0.260528 -0.58269,0.518731 -0.425598,0.28069 -0.695996,0.54345 -0.826012,0.80268 -0.09606,0.19154 -0.09869,0.20385 -0.09785,0.45813 9.46e-4,0.31001 0.06299,0.50957 0.254273,0.81884 0.23626,0.38201 0.492552,0.60454 0.802087,0.69645 0.144732,0.0429 0.219312,0.0502 0.408622,0.04 0.30181,-0.0163 0.4529,-0.0681 1.04599,-0.35849 0.57133,-0.27975 0.66297,-0.29883 0.76081,-0.1584 0.11098,0.15936 0.16846,0.4793 0.15607,0.86947 -0.008,0.22853 -0.0167,0.27964 -0.0626,0.33893 -0.0501,0.0648 -0.0657,0.0695 -0.21536,0.0654 -0.10906,-0.003 -0.2817,-0.0406 -0.53314,-0.11625 -0.77893,-0.23423 -1.11633,-0.24831 -1.49485,-0.0624 -0.456915,0.22439 -0.799638,0.89577 -0.776086,1.52034 0.0081,0.21562 0.01973,0.26925 0.08978,0.41499 0.163089,0.33932 0.43871,0.54731 1.109686,0.83744 0.64422,0.27853 0.71109,0.34535 0.58371,0.58319 -0.0804,0.15019 -0.49904,0.56005 -0.67321,0.65917 -0.29645,0.16873 -0.35666,0.11494 -0.634663,-0.56707 -0.191188,-0.469 -0.316594,-0.68923 -0.501738,-0.88106 -0.353111,-0.36589 -0.813297,-0.44355 -1.447646,-0.24434 -0.456245,0.14327 -0.74937,0.36715 -0.909316,0.6945 l -0.09142,0.18708 0.0015,0.34671 c 0.0015,0.33191 0.0067,0.36568 0.121845,0.79243 0.138293,0.51275 0.155703,0.67893 0.07901,0.75401 -0.02797,0.0275 -0.112187,0.0611 -0.187136,0.0751 -0.134754,0.0251 -0.171084,0.0261 -0.319366,0.009 z m 1.177088,-3.35192 c 0.103973,-0.0289 0.292082,-0.10416 0.418027,-0.16734 0.185583,-0.093 0.275203,-0.1598 0.472767,-0.35195 0.217471,-0.21151 0.257578,-0.26509 0.371679,-0.4965 0.07035,-0.14268 0.146779,-0.34299 0.169846,-0.44514 0.04666,-0.20655 0.05467,-0.61162 0.01595,-0.80481 -0.128805,-0.64246 -0.620334,-1.21967 -1.238423,-1.45425 -0.634965,-0.241 -1.349849,-0.17027 -1.901382,0.18813 -0.558746,0.36306 -0.897087,0.97521 -0.896889,1.62268 1.02e-4,0.3435 0.05454,0.57163 0.21319,0.89339 0.114099,0.23141 0.154213,0.28499 0.371681,0.4965 0.197581,0.19217 0.286981,0.25872 0.471788,0.35121 0.381515,0.19093 0.626144,0.24452 1.051394,0.23031 0.193933,-0.006 0.354556,-0.0273 0.48038,-0.0622 z"
         id="path4738"
         inkscape:export-filename="Z:\Users\Peut\Documents\Webstorm\React\slidingsides\public\bloemetjes.png"
         inkscape:export-xdpi="28.458216"
         inkscape:export-ydpi="28.458216" />
      <path
         id="path1540-7"
         style="fill:#ffffff;stroke:#000000;stroke-width:0.334334"
         d="m 109.88064,100.62894 a 1.7403607,1.6958234 0 0 1 -1.74036,1.69582 1.7403607,1.6958234 0 0 1 -1.74036,-1.69582 1.7403607,1.6958234 0 0 1 1.74036,-1.695815 1.7403607,1.6958234 0 0 1 1.74036,1.695815 z m 1.79032,3.75119 c -1.6208,1.54046 -0.68797,-2.0105 -2.82479,-1.31737 -2.13684,0.69316 0.74504,3.0067 -1.4846,2.71525 -2.22964,-0.29146 1.16211,-1.78492 -0.71871,-3.00326 -1.88084,-1.21833 -1.91489,2.45011 -3.0744,0.54621 -1.1595,-1.90389 2.1371,-0.21524 1.92859,-2.42763 -0.20853,-2.212364 -3.13287,0.0485 -2.34911,-2.034101 0.78376,-2.082671 1.5028,1.516501 3.12361,-0.02393 1.62081,-1.540459 -1.99173,-2.389561 0.1451,-3.082711 2.13684,-0.693138 -0.26314,2.106298 1.96651,2.397758 2.22963,0.291462 0.64922,-3.028299 2.53004,-1.809962 1.88082,1.218335 -1.83092,1.11 -0.67143,3.01391 1.1595,1.903896 2.80129,-1.386653 3.00982,0.825716 0.20852,2.21238 -2.01999,-0.722134 -2.80375,1.36053 -0.78377,2.08268 2.84394,1.29917 1.22312,2.83963 z"
         inkscape:export-filename="Z:\Users\Peut\Documents\Webstorm\React\slidingsides\public\bloemetjes.png"
         inkscape:export-xdpi="28.458216"
         inkscape:export-ydpi="28.458216" />
      <path
         style="fill:#ff6600;stroke:#000000;stroke-width:0.0895613;stroke-miterlimit:4;stroke-dasharray:none"
         d="m 107.55618,105.61875 c -0.41142,-0.0471 -0.62265,-0.1017 -0.726,-0.18762 -0.12428,-0.10331 -0.0939,-0.22489 0.16449,-0.65697 0.44071,-0.73714 0.51843,-1.12422 0.31287,-1.55821 -0.19201,-0.40533 -0.79635,-0.81231 -1.28907,-0.86808 -0.16877,-0.0191 -0.43828,0.0359 -0.60211,0.12299 -0.18075,0.096 -0.44782,0.35717 -0.68159,0.66651 -0.35236,0.46625 -0.45077,0.56527 -0.56182,0.56527 -0.11153,0 -0.42357,-0.38921 -0.57533,-0.71772 -0.10041,-0.21743 -0.11761,-0.31567 -0.0675,-0.38642 0.0603,-0.0851 0.1639,-0.1157 0.68378,-0.20201 0.67758,-0.11251 0.94166,-0.21408 1.17084,-0.45039 0.21949,-0.22632 0.31309,-0.53984 0.29128,-0.97561 -0.0344,-0.68741 -0.2751,-1.055773 -0.81882,-1.253202 -0.12501,-0.0454 -0.20374,-0.05145 -0.83061,-0.06385 -0.83075,-0.01644 -0.82136,-0.01374 -0.82136,-0.236783 0,-0.243988 0.19767,-0.771007 0.35599,-0.949159 0.14191,-0.15968 0.24131,-0.115698 0.72563,0.321058 0.45794,0.412961 0.68628,0.550871 1.00208,0.605202 0.2185,0.03759 0.44088,-0.0029 0.69009,-0.125638 0.15721,-0.07744 0.24031,-0.141092 0.43486,-0.333117 0.20189,-0.199271 0.25718,-0.270722 0.34438,-0.444979 0.0937,-0.187221 0.10491,-0.227894 0.11388,-0.414497 0.0197,-0.405012 -0.11607,-0.683935 -0.60248,-1.238609 -0.22014,-0.251036 -0.37045,-0.470442 -0.37045,-0.540752 0,-0.112734 0.23126,-0.26055 0.58409,-0.373343 0.39445,-0.126089 0.60085,-0.132188 0.67486,-0.01996 0.0349,0.05295 0.0389,0.11067 0.0291,0.426973 -0.0216,0.696973 -0.0133,0.99065 0.0327,1.142999 0.15824,0.525941 0.52874,0.788027 1.21429,0.858979 0.45928,0.04753 0.83515,-0.05709 1.06947,-0.297657 0.21938,-0.225236 0.33107,-0.501421 0.45949,-1.136198 0.0458,-0.226701 0.10726,-0.458361 0.13731,-0.518168 0.0517,-0.102771 0.0599,-0.108513 0.16434,-0.11521 0.0911,-0.0058 0.14456,0.01052 0.31097,0.09513 0.24814,0.126143 0.55125,0.348744 0.62921,0.462073 0.0321,0.04671 0.0584,0.112739 0.0584,0.146716 0,0.08589 -0.17993,0.247795 -0.54833,0.493373 -0.40048,0.266968 -0.65493,0.516888 -0.77729,0.763446 -0.0904,0.18217 -0.0929,0.193885 -0.0921,0.435733 8.8e-4,0.29486 0.0593,0.484665 0.23927,0.778826 0.22232,0.36333 0.4635,0.574994 0.75477,0.662394 0.1362,0.0409 0.20639,0.0478 0.38453,0.0381 0.28401,-0.0155 0.42619,-0.0648 0.98429,-0.340973 0.53764,-0.266077 0.62389,-0.284224 0.71595,-0.150656 0.10446,0.151573 0.15852,0.455879 0.14688,0.826959 -0.007,0.21718 -0.0157,0.26603 -0.0588,0.32237 -0.0462,0.0603 -0.0637,0.0662 -0.19073,0.0639 -0.0914,-0.002 -0.26785,-0.0404 -0.50945,-0.11205 -0.46655,-0.13828 -0.66208,-0.17893 -0.86304,-0.17944 -0.49521,-0.001 -0.83186,0.21656 -1.06919,0.69184 -0.16372,0.32789 -0.22114,0.56684 -0.2094,0.87158 0.008,0.20742 0.0189,0.25842 0.0849,0.39717 0.15347,0.32273 0.41284,0.52056 1.04425,0.79649 0.60622,0.26492 0.66915,0.32848 0.54927,0.5547 -0.0757,0.14284 -0.4696,0.53267 -0.63349,0.62695 -0.27897,0.16048 -0.33563,0.10932 -0.59724,-0.53936 -0.1799,-0.44608 -0.29792,-0.65554 -0.47214,-0.838 -0.33229,-0.34799 -0.76533,-0.42187 -1.36227,-0.2324 -0.42933,0.13627 -0.70517,0.34921 -0.85569,0.66057 l -0.086,0.17794 0.001,0.32974 c 0.001,0.3157 0.007,0.34782 0.11466,0.7537 0.13013,0.48771 0.14651,0.64575 0.0744,0.71717 -0.0263,0.026 -0.10558,0.0582 -0.1761,0.0714 -0.12681,0.0238 -0.161,0.0247 -0.30053,0.009 z m 1.07283,-3.17748 c 0.77772,-0.20934 1.33902,-0.84896 1.41473,-1.6121 0.055,-0.55493 -0.11792,-1.070291 -0.49061,-1.461678 -0.38035,-0.39944 -0.86954,-0.610999 -1.41285,-0.610999 -0.87265,0 -1.64381,0.585425 -1.86086,1.412657 -0.0717,0.27303 -0.0717,0.6466 0,0.91963 0.18185,0.69307 0.77814,1.24486 1.49133,1.38001 0.20999,0.0398 0.66204,0.0253 0.85826,-0.0276 z"
         id="path5031"
         inkscape:export-filename="Z:\Users\Peut\Documents\Webstorm\React\slidingsides\public\bloemetjes.png"
         inkscape:export-xdpi="28.458216"
         inkscape:export-ydpi="28.458216" />
      <path
         id="path1540-49"
         style="fill:#ffffff;stroke:#000000;stroke-width:0.348637"
         d="m 119.35695,104.34654 a 1.8196146,1.7636984 0 0 1 -1.81962,1.7637 1.8196146,1.7636984 0 0 1 -1.81962,-1.7637 1.8196146,1.7636984 0 0 1 1.81962,-1.76369 1.8196146,1.7636984 0 0 1 1.81962,1.76369 z m 1.87184,3.90134 c -1.6946,1.60212 -0.71929,-2.09098 -2.95342,-1.37009 -2.23415,0.72089 0.77896,3.12703 -1.5522,2.82392 -2.33118,-0.30313 1.21502,-1.85637 -0.75145,-3.12346 -1.96648,-1.26709 -2.00209,2.54817 -3.21439,0.56807 -1.21232,-1.9801 2.23442,-0.22386 2.0164,-2.52481 -0.21802,-2.30091 -3.27553,0.0505 -2.45608,-2.11551 0.81945,-2.16603 1.57124,1.5772 3.26585,-0.0248 1.69463,-1.60212 -2.08242,-2.48521 0.15173,-3.206104 2.23414,-0.72087 -0.27513,2.190614 2.05604,2.493744 2.33117,0.30311 0.67879,-3.14952 2.64526,-1.882418 1.96648,1.267098 -1.9143,1.154428 -0.702,3.134548 1.21229,1.98009 2.92886,-1.44216 3.14687,0.85876 0.21802,2.30094 -2.11198,-0.75103 -2.93143,1.415 -0.81945,2.16603 2.97345,1.35116 1.27882,2.95327 z"
         inkscape:export-filename="Z:\Users\Peut\Documents\Webstorm\React\slidingsides\public\bloemetjes.png"
         inkscape:export-xdpi="28.458216"
         inkscape:export-ydpi="28.458216" />
      <path
         style="fill:#ffff00;stroke:#000000;stroke-width:0.0933925;stroke-miterlimit:4;stroke-dasharray:none"
         d="m 116.92663,109.53607 c -0.43017,-0.049 -0.651,-0.10582 -0.75906,-0.19514 -0.12994,-0.10744 -0.0981,-0.23388 0.17198,-0.68325 0.46078,-0.76665 0.54203,-1.16923 0.32711,-1.62058 -0.20074,-0.42157 -0.83261,-0.84482 -1.34776,-0.90283 -0.17647,-0.0199 -0.45824,0.0374 -0.62954,0.12791 -0.18898,0.0998 -0.4682,0.37147 -0.71262,0.69319 -0.3684,0.48491 -0.47129,0.5879 -0.5874,0.5879 -0.11665,0 -0.44286,-0.4048 -0.60154,-0.74645 -0.10503,-0.22615 -0.12296,-0.32831 -0.0705,-0.40189 0.0631,-0.0885 0.17136,-0.12033 0.71492,-0.21009 0.70844,-0.11701 0.98453,-0.22266 1.22416,-0.46842 0.22948,-0.23537 0.32735,-0.56145 0.30454,-1.01467 -0.036,-0.71492 -0.28762,-1.09802 -0.8561,-1.30335 -0.13071,-0.0472 -0.21304,-0.0535 -0.86844,-0.0664 -0.86858,-0.0171 -0.85877,-0.0143 -0.85877,-0.24626 0,-0.25375 0.20666,-0.80187 0.3722,-0.98715 0.14837,-0.16606 0.25231,-0.12032 0.75869,0.33392 0.47878,0.42947 0.71753,0.57291 1.04771,0.62941 0.22844,0.0392 0.46095,-0.003 0.72151,-0.13066 0.16437,-0.0805 0.25126,-0.14674 0.45466,-0.34645 0.21108,-0.20724 0.2689,-0.28156 0.36006,-0.46279 0.098,-0.19472 0.10963,-0.23702 0.11907,-0.43109 0.0206,-0.42122 -0.12136,-0.71131 -0.62992,-1.28818 -0.23017,-0.26108 -0.38732,-0.489271 -0.38732,-0.562393 0,-0.117249 0.24178,-0.270979 0.6107,-0.388286 0.41239,-0.131134 0.62821,-0.137488 0.70557,-0.02079 0.0365,0.0551 0.0406,0.115055 0.0303,0.444058 -0.0226,0.724871 -0.0138,1.030301 0.0341,1.188741 0.16545,0.547 0.55282,0.81957 1.26959,0.89336 0.48019,0.0494 0.87319,-0.0594 1.11818,-0.30957 0.22936,-0.23424 0.34614,-0.52149 0.48041,-1.18167 0.048,-0.23578 0.11213,-0.476708 0.14355,-0.538902 0.054,-0.106853 0.0626,-0.11286 0.17184,-0.119825 0.0952,-0.0058 0.15114,0.0104 0.32513,0.09888 0.25943,0.131187 0.57636,0.362707 0.65785,0.480567 0.0336,0.0486 0.0611,0.11725 0.0611,0.15259 0,0.0893 -0.18812,0.25772 -0.5733,0.51313 -0.41873,0.27765 -0.68476,0.53758 -0.81269,0.794 -0.0945,0.18946 -0.0971,0.20165 -0.0963,0.45317 9.4e-4,0.30666 0.062,0.50406 0.25018,0.80999 0.23244,0.37788 0.48461,0.59801 0.78914,0.68891 0.1424,0.0425 0.21577,0.0498 0.40204,0.0396 0.29693,-0.0162 0.44559,-0.0673 1.02911,-0.35462 0.56212,-0.27672 0.65229,-0.2956 0.74855,-0.15669 0.10922,0.15765 0.16574,0.47413 0.15356,0.86007 -0.007,0.22586 -0.0165,0.27667 -0.0616,0.33527 -0.0482,0.0627 -0.0667,0.0688 -0.19941,0.0664 -0.0956,-0.002 -0.28006,-0.0421 -0.53264,-0.11654 -0.48781,-0.1438 -0.69225,-0.18608 -0.90236,-0.18663 -0.51777,-0.001 -0.86973,0.22524 -1.11787,0.71955 -0.17118,0.34101 -0.2312,0.58952 -0.21894,0.90646 0.008,0.21572 0.0198,0.26877 0.0887,0.41306 0.16046,0.33564 0.43164,0.5414 1.0918,0.82838 0.63383,0.27552 0.69963,0.34162 0.57428,0.5769 -0.0791,0.14856 -0.49097,0.55399 -0.66233,0.65204 -0.29168,0.16691 -0.35092,0.11367 -0.62444,-0.56094 -0.18811,-0.46395 -0.31149,-0.68178 -0.49364,-0.87155 -0.34742,-0.36191 -0.80019,-0.43876 -1.42431,-0.2417 -0.44889,0.14173 -0.73729,0.36319 -0.89464,0.687 l -0.0899,0.18507 0.002,0.34294 c 0.002,0.32832 0.007,0.36174 0.11989,0.78387 0.13606,0.50722 0.15319,0.67159 0.0777,0.74587 -0.0275,0.0271 -0.11037,0.0605 -0.18412,0.0743 -0.13258,0.0247 -0.16832,0.0258 -0.31421,0.009 z m 1.15811,-3.31569 c 0.10229,-0.0285 0.28737,-0.10304 0.41129,-0.16553 0.18259,-0.0921 0.27075,-0.15808 0.46514,-0.34815 0.21396,-0.20922 0.25342,-0.26222 0.36568,-0.49113 0.0693,-0.14114 0.14441,-0.33928 0.16711,-0.44033 0.0459,-0.20432 0.0538,-0.60501 0.0157,-0.79611 -0.12672,-0.63553 -0.61032,-1.20648 -1.21844,-1.43853 -0.62473,-0.23839 -1.32808,-0.16843 -1.87073,0.18609 -0.54973,0.35916 -0.88261,0.96467 -0.88241,1.60516 1e-4,0.33978 0.0537,0.56544 0.20975,0.88372 0.11226,0.22891 0.15172,0.28191 0.36568,0.49113 0.1944,0.1901 0.28235,0.25593 0.46418,0.34742 0.37537,0.18887 0.61605,0.24188 1.03444,0.22782 0.19081,-0.007 0.34883,-0.027 0.47264,-0.0616 z"
         id="path5305"
         inkscape:export-filename="Z:\Users\Peut\Documents\Webstorm\React\slidingsides\public\bloemetjes.png"
         inkscape:export-xdpi="28.458216"
         inkscape:export-ydpi="28.458216" />
      <path
         id="path1540-30"
         style="fill:#ffffff;stroke:#000000;stroke-width:0.293233"
         d="m 117.23916,115.11718 a 1.4818648,1.5320592 0 0 1 -1.48186,1.53206 1.4818648,1.5320592 0 0 1 -1.48187,-1.53206 1.4818648,1.5320592 0 0 1 1.48187,-1.53205 1.4818648,1.5320592 0 0 1 1.48186,1.53205 z m 1.52441,3.38895 c -1.38007,1.3917 -0.58578,-1.81635 -2.40524,-1.19015 -1.81944,0.62621 0.63439,2.71634 -1.26408,2.45303 -1.89847,-0.26331 0.98951,-1.61255 -0.61196,-2.71323 -1.60147,-1.10067 -1.63047,2.2135 -2.61775,0.49346 -0.98729,-1.72004 1.81967,-0.19446 1.64213,-2.1932 -0.17756,-1.99872 -2.66755,0.0438 -2.0002,-1.83767 0.66735,-1.88155 1.2796,1.37005 2.65966,-0.0216 1.38008,-1.3917 -1.6959,-2.1588 0.12355,-2.78502 1.81945,-0.6262 -0.22405,1.9029 1.67441,2.16621 1.89848,0.26332 0.5528,-2.73586 2.15427,-1.63517 1.60147,1.10068 -1.55898,1.00281 -0.5717,2.72286 0.98728,1.72004 2.38521,-1.25275 2.56277,0.74598 0.17754,1.99873 -1.71997,-0.6524 -2.38732,1.22915 -0.66735,1.88154 2.42152,1.1737 1.04146,2.5654 z"
         inkscape:export-filename="Z:\Users\Peut\Documents\Webstorm\React\slidingsides\public\bloemetjes.png"
         inkscape:export-xdpi="28.458216"
         inkscape:export-ydpi="28.458216" />
      <path
         style="fill:#0000ff;stroke:#000000;stroke-width:0.0785511;stroke-miterlimit:4;stroke-dasharray:none"
         d="m 115.25995,119.62513 c -0.35032,-0.0426 -0.53017,-0.0919 -0.61817,-0.16951 -0.10582,-0.0933 -0.0799,-0.20316 0.14006,-0.59352 0.37525,-0.66595 0.44142,-1.01566 0.26639,-1.40773 -0.16348,-0.3662 -0.67806,-0.73387 -1.0976,-0.78425 -0.1437,-0.0173 -0.37318,0.0325 -0.51267,0.1111 -0.15391,0.0867 -0.38131,0.32269 -0.58035,0.60216 -0.30002,0.42122 -0.38382,0.51068 -0.47838,0.51068 -0.095,0 -0.36065,-0.35163 -0.48988,-0.64841 -0.0855,-0.19644 -0.10013,-0.28519 -0.0574,-0.34911 0.0514,-0.0769 0.13956,-0.10452 0.58222,-0.1825 0.57694,-0.10164 0.80179,-0.19341 0.99693,-0.4069 0.18689,-0.20446 0.26659,-0.4877 0.24802,-0.8814 -0.0293,-0.62102 -0.23424,-0.95381 -0.6972,-1.13218 -0.10644,-0.041 -0.17349,-0.0465 -0.70724,-0.0577 -0.70736,-0.0148 -0.69937,-0.0124 -0.69937,-0.21391 0,-0.22043 0.16831,-0.69656 0.30312,-0.85751 0.12083,-0.14425 0.20547,-0.10452 0.61786,0.29006 0.38991,0.37308 0.58434,0.49767 0.85324,0.54676 0.18604,0.034 0.37539,-0.003 0.58758,-0.11351 0.13387,-0.07 0.20462,-0.12747 0.37027,-0.30095 0.1719,-0.18003 0.21899,-0.24457 0.29323,-0.40201 0.0798,-0.16914 0.0893,-0.20588 0.097,-0.37446 0.0167,-0.36591 -0.0988,-0.61789 -0.513,-1.119 -0.18744,-0.22679 -0.31542,-0.42501 -0.31542,-0.48853 0,-0.10185 0.1969,-0.23539 0.49733,-0.33729 0.33585,-0.11391 0.51161,-0.11943 0.57462,-0.018 0.0297,0.0478 0.0331,0.1 0.0247,0.38573 -0.0184,0.62968 -0.0112,0.89499 0.0278,1.03263 0.13474,0.47515 0.45021,0.71193 1.03393,0.77603 0.39107,0.0429 0.71112,-0.0516 0.91063,-0.26892 0.18679,-0.20348 0.28189,-0.453 0.39124,-1.02647 0.0391,-0.20481 0.0913,-0.4141 0.11691,-0.46813 0.044,-0.0928 0.051,-0.098 0.13994,-0.10409 0.0775,-0.005 0.12309,0.01 0.26478,0.0859 0.21128,0.11396 0.46938,0.31507 0.53575,0.41745 0.0274,0.0422 0.0497,0.10186 0.0497,0.13255 0,0.0776 -0.15321,0.22386 -0.46689,0.44573 -0.341,0.24119 -0.55765,0.46697 -0.66183,0.68972 -0.077,0.16458 -0.0791,0.17516 -0.0784,0.39365 7.6e-4,0.26639 0.0505,0.43787 0.20374,0.70362 0.18931,0.32824 0.39466,0.51947 0.64267,0.59843 0.11597,0.0369 0.17573,0.0432 0.32741,0.0344 0.24183,-0.014 0.36289,-0.0585 0.8381,-0.30805 0.45778,-0.24038 0.53121,-0.25677 0.6096,-0.1361 0.089,0.13693 0.13498,0.41185 0.12506,0.74711 -0.006,0.19619 -0.0134,0.24033 -0.0501,0.29124 -0.0393,0.0545 -0.0543,0.0598 -0.16239,0.0577 -0.0779,-0.002 -0.22807,-0.0365 -0.43378,-0.10122 -0.39726,-0.12492 -0.56375,-0.16165 -0.73486,-0.16212 -0.42166,-0.001 -0.7083,0.19566 -0.91038,0.62504 -0.1394,0.29622 -0.18829,0.5121 -0.1783,0.7874 0.007,0.1874 0.0161,0.23347 0.0723,0.35882 0.13067,0.29156 0.35152,0.47029 0.88914,0.71958 0.51618,0.23934 0.56976,0.29676 0.46768,0.50113 -0.0644,0.12904 -0.39984,0.48123 -0.53939,0.5664 -0.23754,0.14499 -0.28578,0.0988 -0.50853,-0.48726 -0.15319,-0.40301 -0.25367,-0.59224 -0.40202,-0.75708 -0.28293,-0.31439 -0.65165,-0.38113 -1.15993,-0.20996 -0.36556,0.12312 -0.60043,0.31549 -0.72859,0.59678 l -0.0732,0.16076 0.001,0.2979 c 10e-4,0.2852 0.005,0.31422 0.0976,0.68091 0.11081,0.44061 0.12476,0.58339 0.0633,0.64791 -0.0224,0.0235 -0.0899,0.0526 -0.14994,0.0645 -0.10798,0.0215 -0.13709,0.0224 -0.25589,0.008 z m 0.94315,-2.88021 c 0.0833,-0.0248 0.23402,-0.0895 0.33494,-0.14379 0.1487,-0.08 0.2205,-0.13732 0.3788,-0.30243 0.17425,-0.18174 0.20639,-0.22778 0.29781,-0.42663 0.0564,-0.12259 0.11761,-0.29472 0.13609,-0.38249 0.0374,-0.17749 0.0438,-0.52556 0.0128,-0.69156 -0.1032,-0.55205 -0.49704,-1.04802 -0.99228,-1.2496 -0.50877,-0.20708 -1.08157,-0.1463 -1.52349,0.16166 -0.44769,0.31198 -0.71879,0.83798 -0.71863,1.39434 8e-5,0.29515 0.0437,0.49117 0.17082,0.76765 0.0914,0.19885 0.12356,0.24489 0.29781,0.42663 0.15831,0.16513 0.22994,0.22231 0.37802,0.30179 0.30569,0.16406 0.5017,0.21011 0.84243,0.1979 0.15539,-0.006 0.28409,-0.0234 0.38491,-0.0535 z"
         id="path5579"
         inkscape:export-filename="Z:\Users\Peut\Documents\Webstorm\React\slidingsides\public\bloemetjes.png"
         inkscape:export-xdpi="28.458216"
         inkscape:export-ydpi="28.458216" />
      <path
         id="path1540-6"
         style="fill:#ffffff;stroke:#000000;stroke-width:0.326699"
         d="m 107.66896,110.7457 a 1.6803966,1.6770267 0 0 1 -1.68039,1.67702 1.6803966,1.6770267 0 0 1 -1.6804,-1.67702 1.6803966,1.6770267 0 0 1 1.6804,-1.67702 1.6803966,1.6770267 0 0 1 1.68039,1.67702 z m 1.72863,3.70961 c -1.56495,1.52339 -0.66426,-1.98822 -2.72747,-1.30276 -2.0632,0.68547 0.71937,2.97336 -1.43343,2.68514 -2.15282,-0.28823 1.12207,-1.76513 -0.69396,-2.96997 -1.81602,-1.20482 -1.8489,2.42296 -2.96846,0.54017 -1.11955,-1.88279 2.06347,-0.21287 1.86214,-2.40073 -0.20134,-2.18784 -3.02493,0.048 -2.26817,-2.01156 0.75676,-2.0596 1.45102,1.49969 3.01599,-0.0236 1.56497,-1.52338 -1.92311,-2.36308 0.14011,-3.04855 2.06321,-0.68545 -0.25408,2.08295 1.89874,2.3712 2.1528,0.28822 0.62685,-2.99474 2.44286,-1.78991 1.81603,1.20484 -1.76783,1.0977 -0.64829,2.9805 1.11955,1.88279 2.70478,-1.37128 2.90612,0.81657 0.20132,2.18786 -1.9504,-0.71413 -2.70715,1.34546 -0.75675,2.05958 2.74595,1.28476 1.18097,2.80814 z"
         inkscape:export-filename="Z:\Users\Peut\Documents\Webstorm\React\slidingsides\public\bloemetjes.png"
         inkscape:export-xdpi="28.458216"
         inkscape:export-ydpi="28.458216" />
      <path
         style="fill:#ff00ff;stroke:#008000;stroke-width:0.0875158;stroke-miterlimit:4;stroke-dasharray:none"
         d="m 105.42459,115.68021 c -0.39724,-0.0466 -0.6012,-0.10056 -0.70098,-0.18555 -0.11999,-0.10222 -0.0906,-0.22241 0.15881,-0.64968 0.42552,-0.72897 0.50057,-1.11177 0.30208,-1.54095 -0.18538,-0.40084 -0.7689,-0.80331 -1.24464,-0.85845 -0.16297,-0.0189 -0.42318,0.0354 -0.58136,0.12162 -0.17452,0.095 -0.43239,0.35322 -0.6581,0.65912 -0.34021,0.46109 -0.43525,0.55901 -0.54248,0.55901 -0.10768,0 -0.40896,-0.38489 -0.5555,-0.70978 -0.097,-0.21502 -0.11357,-0.31217 -0.065,-0.38213 0.0583,-0.0842 0.15826,-0.11442 0.66024,-0.19978 0.65422,-0.11123 0.90921,-0.2117 1.13048,-0.4454 0.21193,-0.2238 0.30231,-0.53383 0.28125,-0.96479 -0.0332,-0.67978 -0.26561,-1.04408 -0.79061,-1.2393 -0.12069,-0.0449 -0.19671,-0.051 -0.80199,-0.0632 -0.80213,-0.0163 -0.79306,-0.0137 -0.79306,-0.23418 0,-0.24128 0.19085,-0.76245 0.34374,-0.93863 0.13701,-0.15789 0.23299,-0.11442 0.70062,0.31751 0.44216,0.40837 0.66263,0.54476 0.96755,0.59849 0.21097,0.0371 0.4257,-0.002 0.6663,-0.12424 0.15181,-0.0766 0.23204,-0.13953 0.41988,-0.32943 0.19493,-0.19706 0.24833,-0.26772 0.33253,-0.44005 0.0905,-0.18514 0.10122,-0.22538 0.10992,-0.40989 0.0189,-0.40053 -0.11204,-0.67636 -0.58174,-1.22487 -0.21255,-0.24828 -0.35768,-0.46524 -0.35768,-0.53477 0,-0.11146 0.2233,-0.25767 0.56397,-0.36921 0.38085,-0.1247 0.58016,-0.13072 0.6516,-0.0196 0.0337,0.0524 0.0375,0.10945 0.028,0.42225 -0.0209,0.68925 -0.0128,0.97966 0.0315,1.13033 0.1528,0.52011 0.51053,0.77927 1.17245,0.84945 0.44346,0.0471 0.80639,-0.0565 1.03263,-0.29437 0.21183,-0.22273 0.31967,-0.49584 0.44366,-1.1236 0.0443,-0.22419 0.10357,-0.45326 0.13258,-0.51241 0.0498,-0.10162 0.0578,-0.10731 0.15868,-0.11395 0.0879,-0.006 0.13958,0.0107 0.30027,0.0941 0.23958,0.12474 0.53226,0.34486 0.60752,0.45694 0.031,0.0461 0.0564,0.11146 0.0564,0.14509 0,0.0849 -0.17374,0.24505 -0.52944,0.4879 -0.38668,0.26402 -0.63238,0.51117 -0.75051,0.75499 -0.0872,0.18015 -0.0897,0.19174 -0.0889,0.43091 8.6e-4,0.29159 0.0573,0.47928 0.23104,0.7702 0.21466,0.35929 0.44753,0.56862 0.72877,0.65504 0.1315,0.0403 0.19925,0.0473 0.37127,0.0376 0.27423,-0.0153 0.41151,-0.064 0.95038,-0.33719 0.51911,-0.26313 0.60239,-0.28108 0.69128,-0.14899 0.10098,0.1499 0.15305,0.45083 0.14181,0.81781 -0.007,0.21477 -0.0152,0.26306 -0.0568,0.31879 -0.0446,0.0596 -0.0615,0.0654 -0.18416,0.0632 -0.0884,-10e-4 -0.25861,-0.04 -0.49188,-0.11076 -0.45048,-0.13673 -0.63929,-0.17694 -0.83332,-0.17745 -0.47815,-0.001 -0.80319,0.21417 -1.03234,0.68418 -0.1581,0.32425 -0.21353,0.56055 -0.20219,0.86191 0.007,0.20512 0.0183,0.25556 0.0819,0.39277 0.14817,0.31915 0.3986,0.5148 1.00826,0.78767 0.58534,0.26198 0.64609,0.32485 0.53034,0.54855 -0.073,0.14126 -0.45341,0.52675 -0.61166,0.61999 -0.26937,0.15871 -0.32406,0.10803 -0.57665,-0.53336 -0.17373,-0.44115 -0.28767,-0.64829 -0.45589,-0.82873 -0.32083,-0.34413 -0.73895,-0.41718 -1.31534,-0.22982 -0.41453,0.13476 -0.68086,0.34535 -0.82619,0.65324 l -0.083,0.17598 0.001,0.32609 c 10e-4,0.31218 0.007,0.34395 0.11062,0.74534 0.12564,0.4823 0.14148,0.63858 0.0718,0.70921 -0.0254,0.0257 -0.10192,0.0577 -0.17003,0.0706 -0.12244,0.0234 -0.15545,0.0244 -0.29018,0.008 z m 1.06951,-3.15275 c 0.0945,-0.0271 0.26537,-0.098 0.37981,-0.15741 0.16862,-0.0875 0.25006,-0.15029 0.42955,-0.33103 0.1976,-0.19895 0.23404,-0.24934 0.33771,-0.467 0.0638,-0.1342 0.13337,-0.32261 0.15431,-0.41869 0.0424,-0.19429 0.0496,-0.57529 0.0146,-0.757 -0.11698,-0.60428 -0.56364,-1.14717 -1.12523,-1.36783 -0.57693,-0.22668 -1.22647,-0.16016 -1.72759,0.17694 -0.50767,0.3415 -0.81509,0.91729 -0.81491,1.52628 9e-5,0.32308 0.0495,0.53766 0.19371,0.8403 0.10369,0.21766 0.14011,0.26805 0.3377,0.467 0.17952,0.18076 0.26076,0.24335 0.42866,0.33032 0.34665,0.1796 0.56893,0.23001 0.95531,0.21664 0.1762,-0.006 0.32215,-0.0256 0.43647,-0.0586 z"
         id="path6316"
         inkscape:export-filename="Z:\Users\Peut\Documents\Webstorm\React\slidingsides\public\bloemetjes.png"
         inkscape:export-xdpi="28.458216"
         inkscape:export-ydpi="28.458216" />
    </g>
  </g>
</svg>
