<?xml version="1.0" encoding="UTF-8" standalone="no"?>
<!-- Created with Inkscape (http://www.inkscape.org/) -->

<svg
   width="210mm"
   height="297mm"
   viewBox="0 0 210 297"
   version="1.1"
   id="svg5"
   inkscape:version="1.1 (c68e22c387, 2021-05-23)"
   sodipodi:docname="stone.svg"
   xmlns:inkscape="http://www.inkscape.org/namespaces/inkscape"
   xmlns:sodipodi="http://sodipodi.sourceforge.net/DTD/sodipodi-0.dtd"
   xmlns="http://www.w3.org/2000/svg"
   xmlns:svg="http://www.w3.org/2000/svg">
  <sodipodi:namedview
     id="namedview7"
     pagecolor="#ffffff"
     bordercolor="#666666"
     borderopacity="1.0"
     inkscape:pageshadow="2"
     inkscape:pageopacity="0.0"
     inkscape:pagecheckerboard="0"
     inkscape:document-units="mm"
     showgrid="false"
     inkscape:snap-global="true"
     inkscape:zoom="17.597674"
     inkscape:cx="190.36607"
     inkscape:cy="160.47576"
     inkscape:window-width="3840"
     inkscape:window-height="2066"
     inkscape:window-x="1909"
     inkscape:window-y="-11"
     inkscape:window-maximized="1"
     inkscape:current-layer="layer1" />
  <defs
     id="defs2" />
  <g
     inkscape:label="Laag 1"
     inkscape:groupmode="layer"
     id="layer1">
    <path
       id="rect1179"
       style="fill:#ffffff;stroke:#000000;stroke-width:0.977499;stroke-miterlimit:4;stroke-dasharray:none"
       d="M 179.52734 123.20117 A 27.790643 27.790643 0 0 0 151.73633 150.99219 A 27.790643 27.790643 0 0 0 151.76172 151.66992 L 151.66992 151.66992 L 151.66992 207.38477 L 207.38477 207.38477 L 207.38477 151.66992 L 207.29297 151.66992 A 27.790643 27.790643 0 0 0 207.31836 150.99219 A 27.790643 27.790643 0 0 0 179.52734 123.20117 z "
       transform="scale(0.26458333)" />
    <path
       style="fill:#999999;stroke:#000000;stroke-width:0.0644323;stroke-miterlimit:4;stroke-dasharray:none"
       d="m 152.17921,179.54078 c 0,-20.54659 0.0162,-27.33316 0.0653,-27.33316 0.0478,0 0.0552,-0.20887 0.0275,-0.78135 -0.10846,-2.24183 0.29939,-5.33046 1.04867,-7.94139 2.10454,-7.33352 7.17227,-13.44357 13.97419,-16.84836 3.30776,-1.65574 6.55835,-2.55354 10.30862,-2.84719 1.07678,-0.0843 3.82244,-0.0356 4.86384,0.0864 7.55263,0.88426 14.2317,4.6605 18.74626,10.59884 3.65377,4.80609 5.68166,10.87963 5.56696,16.67309 -0.0115,0.58299 -0.002,1.05999 0.022,1.05999 0.0236,0 0.043,12.29992 0.043,27.33316 v 27.33316 h -27.33316 -27.33315 z"
       id="path2508"
       transform="scale(0.26458333)" />
  </g>
</svg>
